<?xml version="1.0" standalone="no"?>
<!DOCTYPE svg PUBLIC "-//W3C//DTD SVG 20010904//EN"
 "http://www.w3.org/TR/2001/REC-SVG-20010904/DTD/svg10.dtd">
<svg version="1.0" xmlns="http://www.w3.org/2000/svg"
 width="700.000000pt" height="700.000000pt" viewBox="0 0 700.000000 700.000000"
 preserveAspectRatio="xMidYMid meet">
<metadata>
Created by potrace 1.14, written by Peter Selinger 2001-2017
</metadata>
<g transform="translate(0.000000,700.000000) scale(0.100000,-0.100000)"
fill="#000000" stroke="none">
<path d="M2690 5615 l0 -1115 -27 -10 c-16 -6 -37 -15 -48 -20 -130 -61 -561
-201 -724 -235 -9 -2 -79 -17 -156 -33 -77 -17 -158 -33 -180 -36 -22 -4 -47
-8 -55 -11 -8 -2 -31 -7 -50 -9 -88 -13 -130 -19 -210 -31 -14 -3 -45 -6 -70
-9 -25 -3 -66 -7 -92 -10 -286 -34 -565 -51 -951 -57 l-127 -2 2 -806 3 -806
115 1 c119 1 375 12 445 19 22 2 65 7 95 10 30 3 75 8 100 11 25 3 56 7 70 9
14 3 48 7 75 11 28 3 109 17 180 30 72 14 144 28 160 31 86 15 452 118 510
142 11 5 49 19 85 32 36 12 78 28 93 36 36 18 51 9 33 -20 -16 -24 -61 -170
-71 -227 -4 -19 -10 -57 -15 -85 -5 -27 -7 -117 -6 -200 4 -138 7 -182 21
-243 3 -12 7 -30 9 -40 5 -21 25 -101 32 -124 4 -12 -8 -20 -48 -34 -29 -10
-59 -19 -67 -20 -7 -2 -34 -7 -60 -13 -152 -36 -437 -34 -591 2 -102 25 -196
55 -257 83 -29 13 -64 26 -77 30 -14 3 -30 12 -37 20 -6 8 -16 14 -21 14 -16
0 -156 87 -236 146 -47 36 -74 50 -76 42 -28 -93 -31 -414 -3 -508 43 -152 81
-224 160 -302 81 -80 83 -81 158 -118 73 -35 137 -54 224 -68 89 -13 474 -4
566 13 13 3 39 7 59 10 79 12 184 39 260 66 80 29 180 79 180 90 0 5 7 9 16 9
15 0 91 72 129 123 l20 27 82 -80 c46 -44 83 -78 83 -75 0 3 12 -6 27 -20 75
-71 198 -125 281 -125 l45 0 -7 -47 c-32 -228 -44 -379 -52 -615 l-6 -198 811
0 811 0 0 355 0 355 53 -37 c61 -43 160 -125 165 -136 2 -4 12 -12 23 -17 18
-10 18 -8 -2 37 -32 75 -61 124 -103 178 -42 53 -116 124 -128 125 -5 0 -8
114 -8 253 l0 252 71 -134 c75 -146 162 -281 207 -324 l27 -26 230 -7 c127 -3
232 -8 234 -10 3 -2 12 8 22 22 39 60 -20 151 -186 288 -200 165 -280 318
-325 621 -22 155 -32 518 -14 535 16 15 292 100 470 145 184 47 419 94 599
121 145 22 161 24 310 40 33 3 74 8 90 10 17 2 66 6 110 9 44 4 103 8 130 11
139 11 406 22 592 23 l122 1 -2 807 -2 807 -170 -3 c-93 -1 -188 -4 -210 -5
-22 -2 -84 -6 -138 -10 -53 -4 -105 -9 -115 -10 -9 -2 -51 -7 -92 -11 -41 -4
-84 -9 -95 -11 -11 -2 -42 -7 -70 -10 -27 -4 -120 -19 -205 -36 -195 -36 -190
-35 -280 -59 -41 -11 -84 -22 -95 -24 -11 -3 -74 -21 -140 -41 -204 -62 -425
-150 -612 -245 -90 -45 -113 -53 -114 -40 -2 17 -4 33 -12 96 -11 76 -27 149
-58 258 -17 59 -29 110 -27 113 3 2 11 -15 18 -38 19 -61 24 -65 88 -73 31 -5
66 -9 77 -11 11 -2 74 -4 140 -4 130 -1 237 20 322 62 61 30 132 103 160 164
13 29 33 55 47 62 13 5 40 31 60 55 30 37 38 55 39 91 1 25 -3 50 -8 54 -6 5
-39 21 -75 36 -36 16 -99 44 -140 64 -41 19 -81 35 -87 35 -7 0 -13 4 -13 9 0
4 -5 8 -10 8 -6 0 -47 17 -93 38 -45 21 -106 49 -134 62 -30 13 -55 32 -59 43
-23 72 -138 202 -213 238 -29 15 -47 30 -45 39 31 160 22 310 -19 310 -25 0
-291 -188 -324 -230 -14 -16 -14 -16 -18 20 -11 117 -17 165 -20 170 -11 18
-14 109 -6 162 6 35 13 86 17 113 3 28 8 58 9 67 2 9 7 57 10 105 4 48 9 104
11 123 2 19 6 122 9 228 l6 192 -811 0 -810 0 0 -1115z"/>
</g>
</svg>
